<?xml version="1.0" encoding="utf-8"?>
<!-- Generator: Adobe Illustrator 27.2.0, SVG Export Plug-In . SVG Version: 6.00 Build 0)  -->
<svg version="1.1" id="Capa_1" xmlns="http://www.w3.org/2000/svg" xmlns:xlink="http://www.w3.org/1999/xlink" x="0px" y="0px"
	 viewBox="0 0 1000 303" style="enable-background:new 0 0 1000 303;" xml:space="preserve">
<g>
	<polygon points="213.9,11.2 211,11.2 211,14.1 211,139.8 42.8,139.8 42.8,14.1 42.8,11.2 40,11.2 9.6,11.2 6.7,11.2 6.7,14.1 
		6.7,292.8 6.7,295.7 9.6,295.7 40,295.7 42.8,295.7 42.8,292.8 42.8,175.2 211,175.2 211,292.8 211,295.7 213.9,295.7 244.3,295.7 
		247.2,295.7 247.2,292.8 247.2,14.1 247.2,11.2 244.3,11.2 	"/>
	<polygon points="484.3,11.2 481.4,11.2 481.4,14.1 481.4,43.7 481.4,46.6 484.3,46.6 707.8,46.6 707.8,134.7 575.8,134.7 
		572.9,134.7 572.9,137.6 572.9,167.2 572.9,170.1 575.8,170.1 707.8,170.1 707.8,260.3 554.7,260.3 551.9,260.3 551.9,263.2 
		551.9,292.8 551.9,295.7 554.7,295.7 741.2,295.7 744,295.7 744,292.8 744,14.1 744,11.2 741.2,11.2 	"/>
	<path d="M986,178.8c-5.3-8.8-12.8-16.2-22.5-21.9c-9.4-5.5-20.3-10.2-32.4-13.9c-12-3.6-25-6.8-38.5-9.4
		c-11.8-2.1-22.7-4.5-32.3-7.2c-9.5-2.7-17.5-5.8-23.7-9.3c-6-3.4-10.7-7.6-13.8-12.5c-3.1-4.8-4.6-10.7-4.6-17.4
		c0-8.5,2.7-15.7,8.3-22.1c5.6-6.5,13.5-11.7,23.2-15.4c9.9-3.8,21.3-5.7,33.9-5.7c10.8,0,21.1,1.6,30.5,4.7
		c9.4,3.1,18.1,7.8,25.8,14c7.8,6.2,15,13.7,21.3,22.3l2,2.8l2.4-2.5l20.7-21.8l1.6-1.7l-1.3-1.9c-7.2-10.6-15.8-19.7-25.6-27
		c-9.8-7.3-21.3-13-34-16.8c-12.7-3.8-27.2-5.8-43-5.8c-14.2,0-27.8,1.9-40.2,5.6c-12.5,3.7-23.5,9.1-32.8,15.8
		c-9.4,6.9-16.8,15.2-22.1,24.9c-5.3,9.7-8,20.6-8,32.2c0,12.4,2.3,23.1,7,31.8c4.6,8.7,11.4,16.2,20.2,22.4
		c8.6,6.1,19,11.2,31,15.2c11.8,3.9,25,7.4,39.3,10.2c7.6,1.5,15.3,3.2,22.9,4.9c7.4,1.7,14.7,3.7,21.5,6.1
		c6.8,2.4,12.8,5.2,17.9,8.5c5,3.1,8.9,7,11.8,11.4c2.8,4.3,4.2,9.6,4.2,15.8c0,9.2-3,17.2-9.2,24.2c-6.3,7.1-15,12.6-25.9,16.3
		c-11.1,3.8-23.5,5.7-36.9,5.7c-17.9,0-34.5-3.6-49.2-10.8c-14.8-7.2-29.1-19.3-42.5-36.1l-2.2-2.7l-2.3,2.7l-20.3,24.2l-1.5,1.8
		l1.5,1.8c9.2,11.6,19.8,21.5,31.4,29.4c11.6,7.9,24.6,14,38.5,17.9c13.8,4,29,6,45,6c22.1,0,41.7-3.5,58.1-10.6
		c16.5-7.1,29.6-17.1,38.8-29.8c9.3-12.8,14-27.7,14-44.4C994,198.5,991.3,187.7,986,178.8z"/>
	<path d="M483.8,82.5h-2.9v2.9v87.3c0,16.6-3.8,31.6-11.1,44.8c-7.4,13.1-17.7,23.6-30.5,31.1c-12.9,7.5-27.9,11.3-44.8,11.3
		c-16,0-30.6-3.8-43.2-11.3c-12.6-7.5-22.8-18-30.2-31.1c-7.4-13.1-11.1-28.2-11.1-44.8V14.2v-2.9h-2.9h-30.4h-2.9v2.9V175
		c0,23,5.2,43.9,15.4,62.1c10.2,18.2,24.5,32.6,42.6,43c18,10.4,39.1,15.6,62.7,15.6c23.8,0,45.1-5.2,63.2-15.6
		c18.2-10.4,32.6-24.8,42.8-43c10.2-18.2,15.4-38.9,15.4-61.7V85.3v-2.9H513H483.8z"/>
</g>
</svg>
