<?xml version="1.0" encoding="utf-8"?>
<!-- Generator: Adobe Illustrator 27.2.0, SVG Export Plug-In . SVG Version: 6.00 Build 0)  -->
<svg version="1.1" id="Capa_1" xmlns="http://www.w3.org/2000/svg" xmlns:xlink="http://www.w3.org/1999/xlink" x="0px" y="0px"
	 viewBox="0 0 1000 303" style="enable-background:new 0 0 1000 303;" xml:space="preserve">
<style type="text/css">
	.st0{fill:#FFFFFF;}
</style>
<g>
	<polygon class="st0" points="213.9,11.18 211.02,11.18 211.02,14.06 211.02,139.78 42.85,139.78 42.85,14.06 42.85,11.18 
		39.97,11.18 9.55,11.18 6.67,11.18 6.67,14.06 6.67,292.81 6.67,295.69 9.55,295.69 39.97,295.69 42.85,295.69 42.85,292.81 
		42.85,175.19 211.02,175.19 211.02,292.81 211.02,295.69 213.9,295.69 244.32,295.69 247.2,295.69 247.2,292.81 247.2,14.06 
		247.2,11.18 244.32,11.18 	"/>
	<polygon class="st0" points="484.26,11.18 481.38,11.18 481.38,14.06 481.38,43.7 481.38,46.58 484.26,46.58 707.85,46.58 
		707.85,134.71 575.8,134.71 572.92,134.71 572.92,137.6 572.92,167.23 572.92,170.12 575.8,170.12 707.85,170.12 707.85,260.29 
		554.74,260.29 551.86,260.29 551.86,263.17 551.86,292.81 551.86,295.69 554.74,295.69 741.15,295.69 744.03,295.69 744.03,292.81 
		744.03,14.06 744.03,11.18 741.15,11.18 	"/>
	<path class="st0" d="M985.99,178.82c-5.3-8.82-12.85-16.18-22.45-21.86c-9.37-5.54-20.27-10.23-32.41-13.93
		c-12-3.65-24.96-6.82-38.51-9.43c-11.84-2.06-22.7-4.46-32.33-7.16c-9.51-2.66-17.49-5.79-23.74-9.29
		c-6.05-3.39-10.69-7.59-13.79-12.48c-3.07-4.83-4.62-10.68-4.62-17.37c0-8.46,2.7-15.69,8.27-22.1
		c5.64-6.5,13.45-11.67,23.22-15.38c9.89-3.76,21.29-5.66,33.88-5.66c10.81,0,21.07,1.59,30.48,4.73
		c9.39,3.13,18.08,7.83,25.84,13.96c7.82,6.19,14.99,13.68,21.3,22.26l2.04,2.78l2.37-2.5l20.67-21.84l1.59-1.68l-1.29-1.91
		c-7.17-10.61-15.79-19.7-25.63-27.02c-9.85-7.31-21.3-12.97-34.03-16.83c-12.71-3.83-27.16-5.78-42.95-5.78
		c-14.25,0-27.78,1.88-40.21,5.58c-12.49,3.72-23.54,9.05-32.85,15.84c-9.4,6.85-16.84,15.24-22.09,24.94
		c-5.28,9.74-7.95,20.57-7.95,32.18c0,12.39,2.34,23.08,6.97,31.77c4.61,8.68,11.4,16.24,20.19,22.45
		c8.62,6.11,19.04,11.22,30.98,15.2c11.78,3.93,25.02,7.37,39.34,10.23c7.6,1.52,15.32,3.16,22.94,4.86
		c7.41,1.67,14.65,3.74,21.51,6.15c6.78,2.39,12.81,5.25,17.94,8.49c4.95,3.14,8.92,6.99,11.8,11.42c2.8,4.31,4.21,9.63,4.21,15.79
		c0,9.24-3.02,17.17-9.23,24.23c-6.26,7.12-14.96,12.62-25.87,16.33c-11.09,3.78-23.5,5.7-36.9,5.7c-17.93,0-34.5-3.64-49.24-10.82
		c-14.76-7.19-29.06-19.33-42.5-36.07l-2.2-2.74l-2.26,2.69l-20.28,24.18l-1.51,1.8l1.46,1.84c9.23,11.61,19.81,21.52,31.44,29.45
		c11.64,7.94,24.58,13.97,38.46,17.94c13.84,3.96,29,5.96,45.05,5.96c22.11,0,41.65-3.55,58.07-10.57
		c16.53-7.06,29.59-17.09,38.83-29.82c9.29-12.79,14-27.73,14-44.4C994,198.48,991.3,187.68,985.99,178.82z"/>
	<path class="st0" d="M483.77,82.47h-2.88v2.88v87.34c0,16.57-3.75,31.65-11.14,44.8c-7.38,13.13-17.66,23.6-30.53,31.09
		c-12.88,7.5-27.94,11.31-44.76,11.31c-16.04,0-30.57-3.8-43.18-11.3c-12.63-7.5-22.78-17.97-30.16-31.11
		c-7.39-13.15-11.14-28.22-11.14-44.8V14.21v-2.88h-2.88h-30.42h-2.88v2.88v160.82c0,23.02,5.18,43.9,15.38,62.05
		c10.21,18.18,24.55,32.65,42.61,43.01c18.04,10.35,39.12,15.59,62.66,15.59c23.79,0,45.07-5.24,63.24-15.59
		c18.19-10.35,32.59-24.83,42.81-43.01c10.21-18.17,15.39-38.92,15.39-61.66V85.35v-2.88h-2.88H483.77z"/>
</g>
</svg>
