<?xml version="1.0" encoding="utf-8"?>
<!-- Generator: Adobe Illustrator 27.2.0, SVG Export Plug-In . SVG Version: 6.00 Build 0)  -->
<svg version="1.1" id="Capa_1" xmlns="http://www.w3.org/2000/svg" xmlns:xlink="http://www.w3.org/1999/xlink" x="0px" y="0px"
	 viewBox="0 0 500 500" style="enable-background:new 0 0 500 500;" xml:space="preserve">
<style type="text/css">
	.st0{fill:#FFFFFF;}
</style>
<g>
	<path class="st0" d="M485.5,109l-472,0c-1.1,0-2-0.9-2-2V78.7c0-1.1,0.9-2,2-2h472c1.1,0,2,0.9,2,2V107
		C487.5,108.1,486.6,109,485.5,109z"/>
</g>
<g>
	<path class="st0" d="M485.5,262.9h-472c-1.1,0-2-0.9-2-2v-28.3c0-1.1,0.9-2,2-2h472c1.1,0,2,0.9,2,2v28.3
		C487.5,262,486.6,262.9,485.5,262.9z"/>
</g>
<g>
	<path class="st0" d="M485.5,416.8h-472c-1.1,0-2-0.9-2-2v-28.3c0-1.1,0.9-2,2-2h472c1.1,0,2,0.9,2,2v28.3
		C487.5,415.9,486.6,416.8,485.5,416.8z"/>
</g>
</svg>
