<?xml version="1.0" encoding="utf-8"?>
<!-- Generator: Adobe Illustrator 27.2.0, SVG Export Plug-In . SVG Version: 6.00 Build 0)  -->
<svg version="1.1" id="Capa_1" xmlns="http://www.w3.org/2000/svg" xmlns:xlink="http://www.w3.org/1999/xlink" x="0px" y="0px"
	 viewBox="0 0 300 300" style="enable-background:new 0 0 300 300;" xml:space="preserve">
<style type="text/css">
	.st0{display:none;}
	.st1{display:inline;fill:#FFFFFF;}
	.st2{fill:#FFFFFF;}
</style>
<g class="st0">
	<path class="st1" d="M32.56,299.5c0.97-7.5,1.5-15.08,2.97-22.47c9.46-47.35,44.97-84.25,92.75-93.33
		c62.49-11.87,122.06,27.12,136.19,89.31c1.97,8.66,2.46,17.65,3.63,26.49C189.59,299.5,111.08,299.5,32.56,299.5z"/>
	<path class="st1" d="M81.74,97.61c-1.42-36.76,28.69-69.1,65.52-70.54c38.68-1.51,70.12,28.02,71.77,64.97
		c1.75,39.09-27.58,70.91-66.06,72.44C114.97,165.98,83.24,136.19,81.74,97.61z"/>
</g>
<g>
	<path class="st2" d="M299.5,71.02c-3.64,11.13-7.33,22.25-10.92,33.39c-9.58,29.81-19.13,59.64-28.68,89.46
		c-2.28,7.12-4.84,9.02-12.25,9.02c-46.23,0-92.47,0.03-138.7-0.07c-2.6-0.01-3.71,0.79-4.5,3.2c-2.25,6.8-4.78,13.5-7.4,20.81
		c1.54,0,2.73,0,3.93,0c48.66,0,97.33,0,145.99,0.01c1.26,0,2.53-0.02,3.78,0.14c4.34,0.55,7.39,3.96,7.28,8.05
		c-0.11,4.12-3.28,7.47-7.61,7.76c-2.87,0.19-5.76,0.04-9.26,0.04c6.14,7.77,8.52,16,6.56,25.18c-1.55,7.21-5.38,13.09-11.43,17.32
		c-10.92,7.63-25.06,7.39-36.16-2.45c-10.8-9.58-11.69-23.6-2.25-39.79c-20.52,0-40.92,0-61.73,0c6.47,8.65,8.85,17.92,5.33,28.22
		c-2.08,6.09-5.87,10.94-11.16,14.51c-11.27,7.6-25.92,6.28-35.87-3.32c-8.49-8.18-13.56-23.8-1.62-39.63c-2.21,0-4.08,0.02-5.94,0
		c-7.15-0.1-10.66-5.01-8.29-11.74c2.96-8.42,6.02-16.79,9.02-25.19c0.32-0.89,0.57-1.8,0.96-3.06c-1.53,0-2.76,0.03-3.99,0
		c-5.36-0.13-9.04-3.14-10-8.34c-3.34-18.03-6.62-36.06-9.94-54.09c-5.77-31.39-11.57-62.77-17.27-94.17
		c-0.32-1.79-1.07-2.62-2.69-3.25c-12.29-4.77-24.57-9.59-36.82-14.47c-5.12-2.04-7.62-6.55-6.46-11.25
		c1.46-5.9,7.22-8.87,13.22-6.6c7.71,2.91,15.35,6,23.02,9.02c6.68,2.62,13.33,5.32,20.04,7.85c4.23,1.59,6.58,4.53,7.38,8.93
		c5.66,31.01,11.37,62.02,17.05,93.03c3.16,17.27,6.33,34.54,9.44,51.82c0.34,1.86,1.09,2.5,3.05,2.49
		c48.66-0.06,97.33-0.05,145.99-0.02c1.6,0,2.6-0.23,3.19-2.08c10.91-34.27,21.92-68.52,32.9-102.77c0.06-0.17,0.01-0.38,0.01-0.95
		c-2.03-0.14-4.1-0.33-6.18-0.41c-29.4-1.25-58.8-2.47-88.2-3.73c-25.81-1.11-51.62-2.26-77.42-3.41c-5.65-0.25-9.58-4.29-9.52-9.68
		c0.06-5.47,4.23-9.5,10.07-9.43c4.95,0.06,9.9,0.39,14.85,0.6c30.56,1.32,61.13,2.64,91.69,3.97c26,1.13,52,2.29,78.01,3.42
		c5.04,0.22,7.87,3.18,9.56,7.59C299.5,68.3,299.5,69.66,299.5,71.02z M219.85,249.31c-7.05-0.06-12.87,5.62-12.93,12.62
		c-0.06,6.95,5.8,12.81,12.79,12.79c6.92-0.01,12.62-5.61,12.74-12.51C232.57,255.18,226.9,249.37,219.85,249.31z M127.08,261.94
		c-0.02-7.08-5.71-12.68-12.82-12.63c-6.94,0.05-12.52,5.64-12.57,12.6c-0.05,7.05,5.65,12.81,12.69,12.82
		C121.39,274.75,127.1,269,127.08,261.94z"/>
</g>
</svg>
