<?xml version="1.0" encoding="utf-8"?>
<!-- Generator: Adobe Illustrator 27.2.0, SVG Export Plug-In . SVG Version: 6.00 Build 0)  -->
<svg version="1.1" id="Capa_1" xmlns="http://www.w3.org/2000/svg" xmlns:xlink="http://www.w3.org/1999/xlink" x="0px" y="0px"
	 viewBox="0 0 100 100" style="enable-background:new 0 0 100 100;" xml:space="preserve">
<g>
	<g>
		<path d="M58.6,94.92H40.1l-0.05-1.13c0-0.11-0.01-0.23-0.02-0.34c-0.01-0.26-0.03-0.53-0.03-0.82c0-10.91,0-21.82,0-32.74v-4.94
			H26.59V37.02h13.42c0-1.22,0-2.47-0.01-3.67c-0.01-2.8-0.03-5.69,0.09-8.54c0.11-2.68,0.58-5.16,1.41-7.37
			c0.9-2.42,2.26-4.6,4.03-6.47c2.67-2.83,6.02-4.63,10.25-5.5c0.71-0.15,1.42-0.26,2.11-0.38c0.31-0.05,0.63-0.1,0.94-0.16
			l0.1-0.02l6.87,0c0.44,0.03,0.88,0.07,1.32,0.1c1.02,0.08,2.07,0.16,3.1,0.24c0.71,0.06,1.42,0.12,2.12,0.19
			c0.32,0.03,0.64,0.06,0.96,0.09l1.07,0.1v16.18h-1.18c-0.11,0-0.21,0-0.31,0c-0.21,0-0.4,0-0.6,0c-0.93,0.01-1.86,0.02-2.77,0.02
			c-2.05,0.01-4.17,0.02-6.24,0.13c-3.11,0.17-4.62,1.66-4.74,4.7c-0.1,2.59-0.09,5.25-0.08,7.82c0,0.82,0.01,1.65,0.01,2.49h15.56
			l-2.31,17.93H58.46c0,11.91,0,24.42,0,38.23c0,0.08,0.01,0.18,0.02,0.29c0.01,0.07,0.01,0.14,0.02,0.21L58.6,94.92z M42.37,92.56
			h13.74c0-13.71,0-26.15,0-38c0-0.22,0.02-0.42,0.04-0.63c0.01-0.09,0.02-0.19,0.03-0.29l0.09-1.08h13.38l1.7-13.22H56.5
			l-0.25-0.85c-0.01-0.04-0.02-0.07-0.03-0.1c-0.04-0.12-0.11-0.31-0.11-0.56c0-1.11,0-2.23-0.01-3.32
			c-0.01-2.59-0.03-5.28,0.08-7.93c0.17-4.26,2.64-6.73,6.96-6.96c2.13-0.11,4.28-0.12,6.36-0.13c0.83,0,1.68-0.01,2.52-0.02V7.79
			c-0.68-0.06-1.33-0.12-1.99-0.18C69,7.53,67.96,7.45,66.94,7.37c-0.42-0.03-0.85-0.07-1.27-0.1h-6.53
			c-0.29,0.05-0.57,0.1-0.86,0.14c-0.67,0.11-1.36,0.23-2.02,0.36c-3.74,0.77-6.69,2.35-9.02,4.81c-3.02,3.2-4.59,7.23-4.8,12.32
			c-0.12,2.8-0.1,5.66-0.09,8.43c0.01,1.23,0.01,2.51,0.01,3.76c0,0.22,0,0.44,0,0.68l0,1.59H28.95V52.6h13.42v7.29
			C42.37,70.78,42.37,81.67,42.37,92.56z"/>
	</g>
</g>
</svg>
