<?xml version="1.0" encoding="utf-8"?>
<!-- Generator: Adobe Illustrator 27.2.0, SVG Export Plug-In . SVG Version: 6.00 Build 0)  -->
<svg version="1.1" id="Capa_1" xmlns="http://www.w3.org/2000/svg" xmlns:xlink="http://www.w3.org/1999/xlink" x="0px" y="0px"
	 viewBox="0 0 100 100" style="enable-background:new 0 0 100 100;" xml:space="preserve">
<style type="text/css">
	.st0{display:none;}
	.st1{display:inline;}
</style>
<g class="st0">
	<g class="st1">
		<path d="M58.6,94.92H40.1l-0.05-1.13c0-0.11-0.01-0.23-0.02-0.34c-0.01-0.26-0.03-0.53-0.03-0.82c0-10.91,0-21.82,0-32.74v-4.94
			H26.59V37.02h13.42c0-1.22,0-2.47-0.01-3.67c-0.01-2.8-0.03-5.69,0.09-8.54c0.11-2.68,0.58-5.16,1.41-7.37
			c0.9-2.42,2.26-4.6,4.03-6.47c2.67-2.83,6.02-4.63,10.25-5.5c0.71-0.15,1.42-0.26,2.11-0.38c0.31-0.05,0.63-0.1,0.94-0.16
			l0.1-0.02l6.87,0c0.44,0.03,0.88,0.07,1.32,0.1c1.02,0.08,2.07,0.16,3.1,0.24c0.71,0.06,1.42,0.12,2.12,0.19
			c0.32,0.03,0.64,0.06,0.96,0.09l1.07,0.1v16.18h-1.18c-0.11,0-0.21,0-0.31,0c-0.21,0-0.4,0-0.6,0c-0.93,0.01-1.86,0.02-2.77,0.02
			c-2.05,0.01-4.17,0.02-6.24,0.13c-3.11,0.17-4.62,1.66-4.74,4.7c-0.1,2.59-0.09,5.25-0.08,7.82c0,0.82,0.01,1.65,0.01,2.49h15.56
			l-2.31,17.93H58.46c0,11.91,0,24.42,0,38.23c0,0.08,0.01,0.18,0.02,0.29c0.01,0.07,0.01,0.14,0.02,0.21L58.6,94.92z M42.37,92.56
			h13.74c0-13.71,0-26.15,0-38c0-0.22,0.02-0.42,0.04-0.63c0.01-0.09,0.02-0.19,0.03-0.29l0.09-1.08h13.38l1.7-13.22H56.5
			l-0.25-0.85c-0.01-0.04-0.02-0.07-0.03-0.1c-0.04-0.12-0.11-0.31-0.11-0.56c0-1.11,0-2.23-0.01-3.32
			c-0.01-2.59-0.03-5.28,0.08-7.93c0.17-4.26,2.64-6.73,6.96-6.96c2.13-0.11,4.28-0.12,6.36-0.13c0.83,0,1.68-0.01,2.52-0.02V7.79
			c-0.68-0.06-1.33-0.12-1.99-0.18C69,7.53,67.96,7.45,66.94,7.37c-0.42-0.03-0.85-0.07-1.27-0.1h-6.53
			c-0.29,0.05-0.57,0.1-0.86,0.14c-0.67,0.11-1.36,0.23-2.02,0.36c-3.74,0.77-6.69,2.35-9.02,4.81c-3.02,3.2-4.59,7.23-4.8,12.32
			c-0.12,2.8-0.1,5.66-0.09,8.43c0.01,1.23,0.01,2.51,0.01,3.76c0,0.22,0,0.44,0,0.68l0,1.59H28.95V52.6h13.42v7.29
			C42.37,70.78,42.37,81.67,42.37,92.56z"/>
	</g>
</g>
<g>
	<path d="M5.49,49.86c0-10.44,0-20.88,0-31.32c0-3.15,0.64-6.09,2.61-8.64c2.68-3.46,6.3-4.96,10.58-4.96
		C39.91,4.92,61.13,4.9,82.35,4.95c6.51,0.02,11.09,3.54,12.69,9.59c0.33,1.25,0.42,2.6,0.42,3.91c0.02,20.98,0.03,41.96,0.01,62.93
		c0,6.78-3.45,11.48-9.64,13.1c-1.25,0.33-2.6,0.41-3.91,0.41c-20.98,0.02-41.96,0.03-62.94,0.01c-6.71,0-11.38-3.4-13.03-9.54
		c-0.36-1.34-0.44-2.79-0.44-4.2C5.48,70.74,5.49,60.3,5.49,49.86z M50.49,89.91c10.54,0,21.08,0.02,31.62-0.01
		c5.28-0.01,8.35-2.99,8.35-8.21c0.03-21.18,0.03-42.36,0-63.54c-0.01-5.17-3.04-8.2-8.21-8.21c-21.18-0.03-42.36-0.03-63.54,0
		c-5.17,0.01-8.2,3.04-8.21,8.21c-0.03,21.18-0.03,42.36,0.03,63.54c0,1.37,0.28,2.86,0.87,4.09c1.5,3.12,4.28,4.15,7.61,4.14
		C29.5,89.89,40,89.91,50.49,89.91z"/>
	<path d="M25.53,49.88c0.04-13.81,11.17-24.93,24.95-24.91c13.84,0.02,25.05,11.27,24.96,25.07c-0.1,13.82-11.27,24.91-25.03,24.83
		C36.58,74.8,25.5,63.67,25.53,49.88z M50.62,29.96c-11.05-0.09-20.03,8.78-20.09,19.86c-0.07,11,8.71,19.92,19.75,20.05
		c11.04,0.14,20.06-8.71,20.17-19.79C70.56,39.04,61.71,30.05,50.62,29.96z"/>
	<path d="M78.03,14.99c4.14,0.03,7.42,3.34,7.4,7.47c-0.01,4.11-3.34,7.46-7.43,7.48c-4.12,0.02-7.59-3.49-7.51-7.58
		C70.57,18.22,73.91,14.96,78.03,14.99z M78.01,24.9c1.38-0.02,2.45-1.17,2.4-2.57c-0.05-1.35-1.1-2.35-2.47-2.33
		c-1.33,0.01-2.4,1.08-2.43,2.4C75.49,23.77,76.64,24.92,78.01,24.9z"/>
</g>
</svg>
