<?xml version="1.0" encoding="utf-8"?>
<!-- Generator: Adobe Illustrator 27.2.0, SVG Export Plug-In . SVG Version: 6.00 Build 0)  -->
<svg version="1.1" id="Capa_1" xmlns="http://www.w3.org/2000/svg" xmlns:xlink="http://www.w3.org/1999/xlink" x="0px" y="0px"
	 viewBox="0 0 100 100" style="enable-background:new 0 0 100 100;" xml:space="preserve">
<style type="text/css">
	.st0{display:none;}
	.st1{display:inline;}
	.st2{fill:none;stroke:#000000;stroke-miterlimit:10;}
</style>
<g class="st0">
	<g class="st1">
		<path d="M58.6,94.92H40.1l-0.05-1.13c0-0.11-0.01-0.23-0.02-0.34c-0.01-0.26-0.03-0.53-0.03-0.82c0-10.91,0-21.82,0-32.74v-4.94
			H26.59V37.02h13.42c0-1.22,0-2.47-0.01-3.67c-0.01-2.8-0.03-5.69,0.09-8.54c0.11-2.68,0.58-5.16,1.41-7.37
			c0.9-2.42,2.26-4.6,4.03-6.47c2.67-2.83,6.02-4.63,10.25-5.5c0.71-0.15,1.42-0.26,2.11-0.38c0.31-0.05,0.63-0.1,0.94-0.16
			l0.1-0.02l6.87,0c0.44,0.03,0.88,0.07,1.32,0.1c1.02,0.08,2.07,0.16,3.1,0.24c0.71,0.06,1.42,0.12,2.12,0.19
			c0.32,0.03,0.64,0.06,0.96,0.09l1.07,0.1v16.18h-1.18c-0.11,0-0.21,0-0.31,0c-0.21,0-0.4,0-0.6,0c-0.93,0.01-1.86,0.02-2.77,0.02
			c-2.05,0.01-4.17,0.02-6.24,0.13c-3.11,0.17-4.62,1.66-4.74,4.7c-0.1,2.59-0.09,5.25-0.08,7.82c0,0.82,0.01,1.65,0.01,2.49h15.56
			l-2.31,17.93H58.46c0,11.91,0,24.42,0,38.23c0,0.08,0.01,0.18,0.02,0.29c0.01,0.07,0.01,0.14,0.02,0.21L58.6,94.92z M42.37,92.56
			h13.74c0-13.71,0-26.15,0-38c0-0.22,0.02-0.42,0.04-0.63c0.01-0.09,0.02-0.19,0.03-0.29l0.09-1.08h13.38l1.7-13.22H56.5
			l-0.25-0.85c-0.01-0.04-0.02-0.07-0.03-0.1c-0.04-0.12-0.11-0.31-0.11-0.56c0-1.11,0-2.23-0.01-3.32
			c-0.01-2.59-0.03-5.28,0.08-7.93c0.17-4.26,2.64-6.73,6.96-6.96c2.13-0.11,4.28-0.12,6.36-0.13c0.83,0,1.68-0.01,2.52-0.02V7.79
			c-0.68-0.06-1.33-0.12-1.99-0.18C69,7.53,67.96,7.45,66.94,7.37c-0.42-0.03-0.85-0.07-1.27-0.1h-6.53
			c-0.29,0.05-0.57,0.1-0.86,0.14c-0.67,0.11-1.36,0.23-2.02,0.36c-3.74,0.77-6.69,2.35-9.02,4.81c-3.02,3.2-4.59,7.23-4.8,12.32
			c-0.12,2.8-0.1,5.66-0.09,8.43c0.01,1.23,0.01,2.51,0.01,3.76c0,0.22,0,0.44,0,0.68l0,1.59H28.95V52.6h13.42v7.29
			C42.37,70.78,42.37,81.67,42.37,92.56z"/>
	</g>
</g>
<g class="st0">
	<g class="st1">
		<path d="M35.69,85.95c-4.91,0-9.73-0.67-14.4-2.02c-4.41-1.27-8.66-3.17-12.63-5.66C8.52,78.18,8.42,78.09,8.32,78
			c-0.04-0.03-0.08-0.08-0.14-0.13l-2.69-2.35l3.56,0.32C10.28,75.95,11.5,76,12.7,76c6.84,0,13.01-1.81,18.72-5.49
			c-2.93-0.62-5.5-1.75-7.66-3.37c-2.84-2.14-5.08-5.2-6.64-9.12l-0.73-1.82l1.95,0.23c0.87,0.1,1.77,0.19,2.7,0.22
			c-6.88-3.63-10.25-10.67-10.01-16.76l0.07-1.8l1.61,0.8c1.23,0.61,2.38,1.06,3.5,1.38c-0.94-0.99-1.75-2.04-2.42-3.14
			c-1.34-2.19-2.19-4.67-2.53-7.38c-0.51-4.04,0.29-7.94,2.4-11.6l0.82-1.43l1.07,1.26c9.07,10.67,20.14,16.48,33.79,17.73
			c-0.23-1.89-0.22-3.74,0.04-5.62c0.45-3.36,2.04-6.73,4.48-9.48c2.45-2.76,5.6-4.75,8.88-5.58c6.84-1.74,12.93-0.18,18.12,4.64
			c0.03,0.01,0.08,0.02,0.11,0.03c3.22-0.66,6.33-1.82,9.26-3.45c0.17-0.09,0.32-0.17,0.52-0.27c0.1-0.05,0.21-0.1,0.34-0.17
			l2.49-1.24l-0.86,2.65c-0.89,2.74-2.3,5.11-4.28,7.18c1.54-0.4,3.16-0.94,4.89-1.66l0.76-0.31l1.4,1.58l-0.66,0.77
			c-0.42,0.49-0.84,1-1.25,1.49c-0.97,1.16-1.96,2.36-3.04,3.48c-0.76,0.79-1.59,1.49-2.4,2.16c-0.53,0.44-1.03,0.86-1.51,1.31
			c-0.06,0.06-0.14,0.19-0.15,0.25c-0.01,9.19-1.87,17.54-5.52,24.81c-3.7,7.37-9.34,13.81-16.74,19.14
			c-5.94,4.27-13.12,6.98-21.34,8.06C40.46,85.79,38.06,85.95,35.69,85.95z M13.44,78.32c2.73,1.41,5.58,2.54,8.5,3.38
			c6.62,1.9,13.56,2.4,20.63,1.47c7.95-1.04,14.58-3.54,20.28-7.64c14.11-10.15,21.28-24.31,21.3-42.09c0-0.77,0.46-1.53,0.9-1.94
			c0.52-0.48,1.07-0.94,1.59-1.38c0.79-0.66,1.54-1.29,2.22-1.99c0.6-0.62,1.18-1.27,1.74-1.94c-2.12,0.66-4.1,1.06-6.08,1.25
			l-4.4,0.42l3.62-2.53c2.42-1.69,4.24-3.66,5.51-5.97c-2.52,1.2-5.15,2.08-7.86,2.63c-0.7,0.14-1.58-0.1-2.09-0.58
			c-4.65-4.33-9.88-5.67-16-4.11c-5.82,1.48-10.82,7.12-11.62,13.12c-0.29,2.12-0.23,4.2,0.17,6.37l0.27,1.47l-1.49-0.1
			c-7.42-0.5-14.29-2.33-20.42-5.44c-5.61-2.85-10.75-6.86-15.3-11.92c-1.27,2.77-1.72,5.68-1.34,8.67
			c0.61,4.78,2.92,8.57,7.07,11.59l2.99,2.18l-3.7-0.07c-2.22-0.04-4.29-0.48-6.52-1.4c0.54,5.94,4.84,12.38,12.79,14.37l4.27,1.07
			l-4.24,1.18c-2.17,0.6-4.25,0.67-6.14,0.55c2.92,5.9,7.69,9.08,14.52,9.7l3.01,0.27l-2.42,1.82c-3.9,2.93-8.1,5.04-12.48,6.26
			C19.76,77.81,16.66,78.26,13.44,78.32z"/>
	</g>
</g>
<g>
	<line class="st2" x1="50.49" y1="14.86" x2="50.49" y2="84.98"/>
</g>
<g>
	<line class="st2" x1="770.91" y1="655.55" x2="770.91" y2="725.67"/>
</g>
<g class="st0">
	<path class="st1" d="M50.49,80.53c-14.27,0-28.54,0-42.81,0c-1.91,0-2.19-0.28-2.19-2.13c0-19.01,0-38.01,0-57.02
		c0-1.78,0.3-2.08,2.14-2.08c28.57,0,57.15,0,85.72,0c1.85,0,2.14,0.29,2.14,2.07c0,19.04,0,38.07,0,57.11
		c0,1.72-0.32,2.04-2.09,2.04C79.1,80.53,64.79,80.53,50.49,80.53z M9.77,77.87c27.22,0,54.25,0,81.44,0
		C82.18,67.58,73.26,57.4,64.32,47.21c-0.37,0.3-0.64,0.51-0.9,0.73c-3.91,3.26-7.82,6.53-11.73,9.79c-0.96,0.8-1.44,0.8-2.39,0
		c-2.21-1.84-4.41-3.68-6.62-5.52c-1.98-1.65-3.97-3.31-6.01-5.01C27.69,57.43,18.78,67.59,9.77,77.87z M50.49,55.33
		c13.35-11.14,26.6-22.21,39.96-33.37c-26.74,0-53.25,0-79.93,0C23.92,33.15,37.17,44.21,50.49,55.33z M34.65,45.51
		c-8.83-7.37-17.6-14.69-26.45-22.08c0,17.49,0,34.77,0,52.25C17.08,65.55,25.84,55.56,34.65,45.51z M92.77,23.43
		c-8.88,7.42-17.64,14.73-26.45,22.08c8.82,10.06,17.58,20.05,26.45,30.16C92.77,58.19,92.77,40.91,92.77,23.43z"/>
</g>
</svg>
