<?xml version="1.0" encoding="utf-8"?>
<!-- Generator: Adobe Illustrator 27.2.0, SVG Export Plug-In . SVG Version: 6.00 Build 0)  -->
<svg version="1.1" id="Capa_1" xmlns="http://www.w3.org/2000/svg" xmlns:xlink="http://www.w3.org/1999/xlink" x="0px" y="0px"
	 viewBox="0 0 300 300" style="enable-background:new 0 0 300 300;" xml:space="preserve">
<style type="text/css">
	.st0{fill:#FFFFFF;}
</style>
<g>
	<path class="st0" d="M32.56,299.5c0.97-7.5,1.5-15.08,2.97-22.47c9.46-47.35,44.97-84.25,92.75-93.33
		c62.49-11.87,122.06,27.12,136.19,89.31c1.97,8.66,2.46,17.65,3.63,26.49C189.59,299.5,111.08,299.5,32.56,299.5z"/>
	<path class="st0" d="M81.74,97.61c-1.42-36.76,28.69-69.1,65.52-70.54c38.68-1.51,70.12,28.02,71.77,64.97
		c1.75,39.09-27.58,70.91-66.06,72.44C114.97,165.98,83.24,136.19,81.74,97.61z"/>
</g>
</svg>
